<svg xmlns="http://www.w3.org/2000/svg" version="1.1" xmlns:xlink="http://www.w3.org/1999/xlink" xmlns:svgjs="http://svgjs.dev/svgjs" viewBox="0 0 800 800"><g transform="matrix(1,0,0,1,0,0)"><path d="M680.3803491661405 635.7761454627391C681.8632656549771 632.7796203137285 686.1367466693748 632.7796203137285 687.6196631582113 635.7761454627391L733.5759397595543 728.641771354329C734.9041838586239 731.325720968928 732.9511925350907 734.4712646866698 729.9566866078787 734.4712646866698H638.0433257164732C635.048819789261 734.4712646866698 633.0958284657279 731.325720968928 634.4240725647974 728.641771354329L680.3803491661405 635.7761454627391Z " stroke-width="4" stroke="#ff3895" fill="none" opacity="0.1" transform="rotate(100, 400, 400)"></path><path d="M656.1103971879713 604.072164620266C657.8404664249472 600.5762186130869 662.8261942750778 600.5762186130869 664.5562635120539 604.072164620266L718.1719195469541 712.4153948271208C719.7215376625352 715.5466693774863 717.4430477850799 719.2164703815184 713.9494575366658 719.2164703815184H606.7172031633593C603.2236129149451 719.2164703815184 600.9451230374898 715.5466693774863 602.494741153071 712.4153948271208L656.1103971879713 604.072164620266Z " stroke-width="5" stroke="#f645a1" fill="none" opacity="0.175" transform="rotate(91.66666666666667, 400, 400)"></path><path d="M631.8404604685909 572.3681837777928C633.8176824537063 568.3728169124452 639.51565713957 568.3728169124452 641.4928791246853 572.3681837777928L702.7679145931427 696.1890182999125C704.5389067252355 699.7676177860446 701.934918293858 703.961676076367 697.9422437242418 703.961676076367H575.3910958690344C571.3984212994183 703.961676076367 568.7944328680408 699.7676177860446 570.5654250001335 696.1890182999125L631.8404604685909 572.3681837777928Z " stroke-width="6" stroke="#ed50ab" fill="none" opacity="0.25" transform="rotate(83.33333333333333, 400, 400)"></path><path d="M607.5705237492108 540.6642029353196C609.7948984824657 536.1694152118037 616.2051200040621 536.1694152118037 618.4294947373169 540.6642029353196L687.3639096393315 679.9626417727044C689.3562757879358 683.988566194603 686.4267888026362 688.7068817712156 681.935029911818 688.7068817712156H544.0649885747097C539.5732296838914 688.7068817712156 536.6437426985918 683.988566194603 538.6361088471962 679.9626417727044L607.5705237492108 540.6642029353196Z " stroke-width="7" stroke="#e35ab5" fill="none" opacity="0.32499999999999996" transform="rotate(75, 400, 400)"></path><path d="M583.3005717710415 508.96023735163556C585.7720992524357 503.96602876995115 592.8945676097652 503.96602876995115 595.3660950911594 508.96023735163556L671.9598894267313 663.7362805042853C674.1736295918472 668.2095298619504 670.9186440526254 673.4521027248534 665.9278008406052 673.4521027248534H512.7388660215959C507.7480228095756 673.4521027248534 504.49303727035385 668.2095298619504 506.70677743546975 663.7362805042853L583.3005717710415 508.96023735163556Z " stroke-width="8" stroke="#d962bf" fill="none" opacity="0.4" transform="rotate(66.66666666666666, 400, 400)"></path><path d="M559.0306350516612 477.2562565091623C561.7493152811949 471.7626270693095 569.5840304742574 471.7626270693095 572.302710703791 477.2562565091623L656.55588447292 647.509903977077C658.9909986545474 652.4304782705086 655.4105145614035 658.1973084197018 649.9205870281812 658.1973084197018H481.41275872727095C475.92283119404874 658.1973084197018 472.34234710090476 652.4304782705086 474.7774612825323 647.509903977077L559.0306350516612 477.2562565091623Z " stroke-width="9" stroke="#cf6ac8" fill="none" opacity="0.475" transform="rotate(58.33333333333333, 400, 400)"></path><path d="M534.7606830734919 445.5522756666892C537.726516051165 439.55922536866785 546.2734780799603 439.55922536866785 549.2393110576336 445.5522756666892L641.1518642603196 631.2835274498689C643.8083524584588 636.6514266790668 639.9023698113925 642.9425141145505 633.9133579569683 642.9425141145505H450.08663617415715C444.09762431973286 642.9425141145505 440.1916416726667 636.6514266790668 442.8481298708058 631.2835274498689L534.7606830734919 445.5522756666892Z " stroke-width="10" stroke="#c472d1" fill="none" opacity="0.5499999999999999" transform="rotate(50, 400, 400)"></path><path d="M510.49074635411165 413.8482871948214C513.7037320799242 407.3558160386317 522.9629409444525 407.3558160386317 526.175926670265 413.8482871948214L625.7478593065083 615.0571432932661C628.625721521159 620.8723674582307 624.3942403201706 627.6877121800045 617.9061441445444 627.6877121800045H418.7605288798323C412.272432704206 627.6877121800045 408.0409515032177 620.8723674582307 410.9188137178683 615.0571432932661L510.49074635411165 413.8482871948214Z " stroke-width="11" stroke="#b879d9" fill="none" opacity="0.625" transform="rotate(41.666666666666664, 400, 400)"></path><path d="M486.2208096347315 382.1443292405319C489.6809481086834 375.1524372261737 499.65240380894465 375.1524372261737 503.1125422828966 382.1443292405319L610.3438543526971 598.8307896542415C613.4430905838594 605.0933387549726 608.8861108289489 612.4329407630368 601.8989303321205 612.4329407630368H387.43442158550755C380.4472410886792 612.4329407630368 375.8902613337687 605.0933387549726 378.98949756493096 598.8307896542415L486.2208096347315 382.1443292405319Z " stroke-width="12" stroke="#ab7fe1" fill="none" opacity="0.7" transform="rotate(33.33333333333333, 400, 400)"></path><path d="M461.9508576565622 350.4403407686642C465.6581488786536 342.94902789613764 476.34185141464775 342.94902789613764 480.04914263673913 350.4403407686642L594.9398341400969 582.6044054976388C598.2604443877707 589.3142795341364 593.377966078938 597.1781388284909 585.8917012609077 597.1781388284909H356.1082990323937C348.62203421436334 597.1781388284909 343.73955590553066 589.3142795341364 347.06016615320453 582.6044054976388L461.9508576565622 350.4403407686642Z " stroke-width="13" stroke="#9e86e9" fill="none" opacity="0.7749999999999999" transform="rotate(25, 400, 400)"></path><path d="M437.6809056783929 318.7363522967965C441.63534964862373 310.7456185661014 453.03129902035084 310.7456185661014 456.9857429905816 318.7363522967965L579.5358139274965 566.3780213410361C583.077798191682 573.5352203133002 577.869821328927 581.9233368939449 569.8844721896946 581.9233368939449H324.7821764792798C316.79682734004746 581.9233368939449 311.5888504772926 573.5352203133002 315.13083474147805 566.3780213410361L437.6809056783929 318.7363522967965Z " stroke-width="14" stroke="#8f8cf1" fill="none" opacity="0.85" transform="rotate(16.666666666666657, 400, 400)"></path><path d="M413.41098421780174 287.0323867131124C417.612580936172 278.54223212424887 429.72077714363206 278.54223212424887 433.92237386200225 287.0323867131124L564.1318242324743 550.151660072617C567.8951825131713 557.7561839806475 562.3617070964943 566.6685578475825 553.87727363606 566.6685578475825H293.4560844437441C284.9716509833097 566.6685578475825 279.43817556663265 557.7561839806475 283.2015338473297 550.151660072617L413.41098421780174 287.0323867131124Z " stroke-width="15" stroke="#7e91f8" fill="none" opacity="0.9249999999999999" transform="rotate(8.333333333333329, 400, 400)"></path><path d="M389.14103223963247 255.32842112942834C393.58978170614216 246.33884568239637 406.41022474933516 246.33884568239637 410.8589742158448 255.32842112942834L548.727804019874 533.9252988041978C552.7125363170826 541.977147647995 546.8535623464834 551.4137788012202 537.8700445648469 551.4137788012202H262.1299618906303C253.14644410899382 551.4137788012202 247.2874701383946 541.977147647995 251.27220243560328 533.9252988041978L389.14103223963247 255.32842112942834Z " stroke-width="16" stroke="#6b97ff" fill="none" opacity="0.9999999999999999" transform="rotate(0, 400, 400)"></path></g></svg>